:FULLY-SPECIFIED
:FORCE-ALL-JOINTS-BE-3DOF
:DEGREES
3160
root 0.161769 16.4593 -32.2482 6.1207 -18.6232 -6.23082
lfemur -21.7194 5.19849 -6.59265
ltibia 39.5234 -0 0
lfoot -12.9734 8.81814 -0.315671
ltoes -35.78 0 0
rfemur -20.2327 -3.59236 18.1223
rtibia 45.5503 -0 0
rfoot -15.6636 -19.1151 0.00352133
rtoes -17.1385 0 0
lowerback 7.84577 2.65729 -0.565558
upperback -4.0415 3.64032 1.73194
thorax -8.7967 1.85627 1.49554
lowerneck -5.81785 -2.18496 -5.70357
upperneck 11.5374 -3.01354 5.26525
head 4.78734 -1.43175 2.28049
lclavicle 2.33723e-14 9.22471e-15 -1.98129e-30
lhumerus -24.1915 -4.70567 88.2844
lradius 40.4545 -0 0
lwrist -19.5279 0 0
lhand -34.7548 30.6446 0.0218689
lfingers 7.12502 -0 0
lthumb -7.9074 60.4597 0.0239295
rclavicle 2.33723e-14 9.22471e-15 -1.98129e-30
rhumerus -36.5397 15.3714 -83.5788
rradius 48.8412 -0 0
rwrist -13.2063 0 0
rhand -14.2365 -33.6805 0.193007
rfingers 7.12502 -0 0
rthumb 11.8874 -63.1521 0.235495
3161
root 0.171634 16.4638 -32.2569 6.10776 -18.4221 -6.20884
lfemur -21.662 5.13033 -6.61212
ltibia 39.4859 -0 0
lfoot -13.0123 8.83732 -0.313195
ltoes -35.8212 0 0
rfemur -20.2105 -3.55966 18.1229
rtibia 45.479 -0 0
rfoot -15.6304 -19.1149 0.00349374
rtoes -17.1459 0 0
lowerback 7.82868 2.65056 -0.568274
upperback -4.04515 3.63109 1.73257
thorax -8.79087 1.85211 1.50061
lowerneck -5.82194 -2.2108 -5.71984
upperneck 11.5451 -3.04766 5.27331
head 4.79092 -1.44863 2.2843
lclavicle 2.34546e-14 9.28197e-15 -1.96578e-30
lhumerus -24.247 -4.72771 88.303
lradius 40.3289 -0 0
lwrist -19.5289 0 0
lhand -34.7426 30.6488 0.0216978
lfingers 7.12502 -0 0
lthumb -7.89563 60.4646 0.0237422
rclavicle 2.34546e-14 9.28197e-15 -1.96578e-30
rhumerus -36.524 15.2889 -83.5509
rradius 48.7038 -0 0
rwrist -13.0543 0 0
rhand -14.2727 -33.6931 0.191494
rfingers 7.12502 -0 0
rthumb 11.8526 -63.1681 0.233649
3162
root 0.181499 16.4682 -32.2656 6.09491 -18.221 -6.18692
lfemur -21.6046 5.06219 -6.63166
ltibia 39.4483 -0 0
lfoot -13.0513 8.8565 -0.310706
ltoes -35.8625 0 0
rfemur -20.1882 -3.52696 18.1235
rtibia 45.4077 -0 0
rfoot -15.5972 -19.1146 0.003466
rtoes -17.1533 0 0
lowerback 7.81159 2.64384 -0.570988
upperback -4.04881 3.62186 1.73321
thorax -8.78504 1.84795 1.50567
lowerneck -5.82604 -2.23663 -5.73612
upperneck 11.5527 -3.08178 5.28137
head 4.7945 -1.46551 2.28811
lclavicle 2.35369e-14 9.33923e-15 -1.9502e-30
lhumerus -24.3026 -4.74973 88.3217
lradius 40.2033 -0 0
lwrist -19.5299 0 0
lhand -34.7305 30.6531 0.0215257
lfingers 7.12502 -0 0
lthumb -7.88387 60.4694 0.0235539
rclavicle 2.35369e-14 9.33923e-15 -1.9502e-30
rhumerus -36.5084 15.2064 -83.5231
rradius 48.5664 -0 0
rwrist -12.9022 0 0
rhand -14.3089 -33.7057 0.189973
rfingers 7.12502 -0 0
rthumb 11.8177 -63.1842 0.231793
3163
root 0.191364 16.4727 -32.2742 6.08217 -18.0199 -6.16508
lfemur -21.5472 4.99407 -6.65127
ltibia 39.4107 -0 0
lfoot -13.0903 8.87568 -0.308204
ltoes -35.9037 0 0
rfemur -20.1659 -3.49426 18.1241
rtibia 45.3364 -0 0
rfoot -15.564 -19.1144 0.00343811
rtoes -17.1607 0 0
lowerback 7.7945 2.63712 -0.573699
upperback -4.05246 3.61263 1.73385
thorax -8.77921 1.84379 1.51074
lowerneck -5.83012 -2.26247 -5.75239
upperneck 11.5603 -3.1159 5.28942
head 4.79808 -1.48238 2.29192
lclavicle 2.36192e-14 9.3965e-15 -1.93453e-30
lhumerus -24.3581 -4.77173 88.3404
lradius 40.0777 -0 0
lwrist -19.5308 0 0
lhand -34.7183 30.6573 0.0213527
lfingers 7.12502 -0 0
lthumb -7.87211 60.4742 0.0233646
rclavicle 2.36192e-14 9.3965e-15 -1.93453e-30
rhumerus -36.4929 15.1239 -83.4953
rradius 48.429 -0 0
rwrist -12.7501 0 0
rhand -14.3452 -33.7184 0.188444
rfingers 7.12502 -0 0
rthumb 11.7829 -63.2002 0.229927
3164
root 0.201228 16.4772 -32.2829 6.06951 -17.8188 -6.14331
lfemur -21.4897 4.92597 -6.67094
ltibia 39.3731 -0 0
lfoot -13.1292 8.89486 -0.305689
ltoes -35.945 0 0
rfemur -20.1436 -3.46156 18.1248
rtibia 45.2651 -0 0
rfoot -15.5308 -19.1141 0.00341008
rtoes -17.1681 0 0
lowerback 7.77741 2.63039 -0.576409
upperback -4.05612 3.60339 1.73449
thorax -8.77339 1.83962 1.5158
lowerneck -5.8342 -2.28831 -5.76867
upperneck 11.568 -3.15003 5.29746
head 4.80166 -1.49926 2.29573
lclavicle 2.37015e-14 9.45376e-15 -1.91878e-30
lhumerus -24.4137 -4.79371 88.3592
lradius 39.9521 -0 0
lwrist -19.5318 0 0
lhand -34.7061 30.6616 0.0211788
lfingers 7.12502 -0 0
lthumb -7.86034 60.4791 0.0231744
rclavicle 2.37015e-14 9.45376e-15 -1.91878e-30
rhumerus -36.4774 15.0414 -83.4676
rradius 48.2916 -0 0
rwrist -12.598 0 0
rhand -14.3814 -33.731 0.186907
rfingers 7.12502 -0 0
rthumb 11.7481 -63.2162 0.228052
